<mxfile host="app.diagrams.net" modified="2024-03-06T16:07:58.942Z" agent="Mozilla/5.0 (Macintosh; Intel Mac OS X 10_15_7) AppleWebKit/537.36 (KHTML, like Gecko) Chrome/122.0.0.0 Safari/537.36" etag="gmw-mr_X4Pc_HAp6jRjN" version="24.0.1" type="github">
  <diagram name="Page-1" id="sz9WDsKcMjd7FwOMRA3z">
    <mxGraphModel dx="2970" dy="1347" grid="1" gridSize="10" guides="1" tooltips="1" connect="1" arrows="1" fold="1" page="1" pageScale="1" pageWidth="850" pageHeight="1100" math="0" shadow="0">
      <root>
        <mxCell id="0" />
        <mxCell id="1" parent="0" />
        <mxCell id="98Ptpq3VxeF9D4LMuZ2r-227" value="" style="rounded=0;whiteSpace=wrap;html=1;dashed=1;dashPattern=8 8;strokeColor=#FF6666;strokeWidth=3;" vertex="1" parent="1">
          <mxGeometry x="-40" y="1260" width="680" height="480" as="geometry" />
        </mxCell>
        <mxCell id="98Ptpq3VxeF9D4LMuZ2r-226" value="" style="rounded=0;whiteSpace=wrap;html=1;dashed=1;dashPattern=8 8;strokeColor=#FF6666;strokeWidth=3;" vertex="1" parent="1">
          <mxGeometry x="-40" y="720" width="680" height="480" as="geometry" />
        </mxCell>
        <mxCell id="98Ptpq3VxeF9D4LMuZ2r-225" value="" style="rounded=0;whiteSpace=wrap;html=1;dashed=1;dashPattern=8 8;strokeColor=#FF6666;strokeWidth=3;" vertex="1" parent="1">
          <mxGeometry x="-840" y="2440" width="680" height="480" as="geometry" />
        </mxCell>
        <mxCell id="98Ptpq3VxeF9D4LMuZ2r-224" value="" style="rounded=0;whiteSpace=wrap;html=1;dashed=1;dashPattern=8 8;strokeColor=#FF6666;strokeWidth=3;" vertex="1" parent="1">
          <mxGeometry x="-840" y="1900" width="680" height="480" as="geometry" />
        </mxCell>
        <mxCell id="98Ptpq3VxeF9D4LMuZ2r-223" value="" style="rounded=0;whiteSpace=wrap;html=1;dashed=1;dashPattern=8 8;strokeColor=#FF6666;strokeWidth=3;" vertex="1" parent="1">
          <mxGeometry x="-840" y="1260" width="680" height="480" as="geometry" />
        </mxCell>
        <mxCell id="98Ptpq3VxeF9D4LMuZ2r-220" value="" style="rounded=0;whiteSpace=wrap;html=1;dashed=1;dashPattern=8 8;strokeColor=#FF6666;strokeWidth=3;" vertex="1" parent="1">
          <mxGeometry x="-840" y="720" width="680" height="480" as="geometry" />
        </mxCell>
        <mxCell id="98Ptpq3VxeF9D4LMuZ2r-53" value="" style="edgeStyle=orthogonalEdgeStyle;rounded=0;orthogonalLoop=1;jettySize=auto;html=1;startArrow=classic;startFill=1;" edge="1" parent="1" source="98Ptpq3VxeF9D4LMuZ2r-44" target="98Ptpq3VxeF9D4LMuZ2r-50">
          <mxGeometry relative="1" as="geometry">
            <Array as="points">
              <mxPoint x="-500" y="780" />
            </Array>
          </mxGeometry>
        </mxCell>
        <mxCell id="98Ptpq3VxeF9D4LMuZ2r-44" value="Card&lt;br&gt;0" style="rounded=0;whiteSpace=wrap;html=1;fillColor=#dae8fc;strokeColor=#6c8ebf;" vertex="1" parent="1">
          <mxGeometry x="-680" y="740" width="40" height="80" as="geometry" />
        </mxCell>
        <mxCell id="98Ptpq3VxeF9D4LMuZ2r-54" value="" style="edgeStyle=orthogonalEdgeStyle;rounded=0;orthogonalLoop=1;jettySize=auto;html=1;startArrow=classic;startFill=1;" edge="1" parent="1" source="98Ptpq3VxeF9D4LMuZ2r-45" target="98Ptpq3VxeF9D4LMuZ2r-50">
          <mxGeometry relative="1" as="geometry">
            <Array as="points">
              <mxPoint x="-500" y="780" />
            </Array>
          </mxGeometry>
        </mxCell>
        <mxCell id="98Ptpq3VxeF9D4LMuZ2r-45" value="Card&lt;br style=&quot;border-color: var(--border-color);&quot;&gt;1" style="rounded=0;whiteSpace=wrap;html=1;fillColor=#d5e8d4;strokeColor=#82b366;" vertex="1" parent="1">
          <mxGeometry x="-360" y="740" width="40" height="80" as="geometry" />
        </mxCell>
        <mxCell id="98Ptpq3VxeF9D4LMuZ2r-51" value="" style="edgeStyle=orthogonalEdgeStyle;rounded=0;orthogonalLoop=1;jettySize=auto;html=1;startArrow=classic;startFill=1;" edge="1" parent="1" source="98Ptpq3VxeF9D4LMuZ2r-46" target="98Ptpq3VxeF9D4LMuZ2r-50">
          <mxGeometry relative="1" as="geometry" />
        </mxCell>
        <mxCell id="98Ptpq3VxeF9D4LMuZ2r-46" value="Card&lt;br style=&quot;border-color: var(--border-color);&quot;&gt;2" style="rounded=0;whiteSpace=wrap;html=1;fillColor=#d5e8d4;strokeColor=#82b366;" vertex="1" parent="1">
          <mxGeometry x="-680" y="1100" width="40" height="80" as="geometry" />
        </mxCell>
        <mxCell id="98Ptpq3VxeF9D4LMuZ2r-47" value="Card&lt;br style=&quot;border-color: var(--border-color);&quot;&gt;3" style="rounded=0;whiteSpace=wrap;html=1;fillColor=#dae8fc;strokeColor=#6c8ebf;" vertex="1" parent="1">
          <mxGeometry x="-360" y="1100" width="40" height="80" as="geometry" />
        </mxCell>
        <mxCell id="98Ptpq3VxeF9D4LMuZ2r-56" value="" style="edgeStyle=orthogonalEdgeStyle;rounded=0;orthogonalLoop=1;jettySize=auto;html=1;startArrow=classic;startFill=1;" edge="1" parent="1" source="98Ptpq3VxeF9D4LMuZ2r-48" target="98Ptpq3VxeF9D4LMuZ2r-50">
          <mxGeometry relative="1" as="geometry" />
        </mxCell>
        <mxCell id="98Ptpq3VxeF9D4LMuZ2r-48" value="IB&lt;br&gt;1" style="rounded=0;whiteSpace=wrap;html=1;fillColor=#cdeb8b;strokeColor=#36393d;" vertex="1" parent="1">
          <mxGeometry x="-240" y="920" width="40" height="80" as="geometry" />
        </mxCell>
        <mxCell id="98Ptpq3VxeF9D4LMuZ2r-55" value="" style="edgeStyle=orthogonalEdgeStyle;rounded=0;orthogonalLoop=1;jettySize=auto;html=1;startArrow=classic;startFill=1;" edge="1" parent="1" source="98Ptpq3VxeF9D4LMuZ2r-49" target="98Ptpq3VxeF9D4LMuZ2r-50">
          <mxGeometry relative="1" as="geometry" />
        </mxCell>
        <mxCell id="98Ptpq3VxeF9D4LMuZ2r-49" value="IB&lt;br&gt;0" style="rounded=0;whiteSpace=wrap;html=1;fillColor=#cdeb8b;strokeColor=#36393d;" vertex="1" parent="1">
          <mxGeometry x="-800" y="920" width="40" height="80" as="geometry" />
        </mxCell>
        <mxCell id="98Ptpq3VxeF9D4LMuZ2r-50" value="PCIE&lt;div&gt;SWITCH&lt;/div&gt;&lt;div&gt;NUMA 0&lt;/div&gt;" style="rounded=0;whiteSpace=wrap;html=1;fillColor=#e1d5e7;strokeColor=#9673a6;" vertex="1" parent="1">
          <mxGeometry x="-560" y="920" width="120" height="80" as="geometry" />
        </mxCell>
        <mxCell id="98Ptpq3VxeF9D4LMuZ2r-77" value="" style="edgeStyle=orthogonalEdgeStyle;rounded=0;orthogonalLoop=1;jettySize=auto;html=1;startArrow=classic;startFill=1;" edge="1" parent="1" source="98Ptpq3VxeF9D4LMuZ2r-78" target="98Ptpq3VxeF9D4LMuZ2r-89">
          <mxGeometry relative="1" as="geometry">
            <Array as="points">
              <mxPoint x="-500" y="1320" />
            </Array>
          </mxGeometry>
        </mxCell>
        <mxCell id="98Ptpq3VxeF9D4LMuZ2r-78" value="Card&lt;br&gt;3" style="rounded=0;whiteSpace=wrap;html=1;fillColor=#f5f5f5;fontColor=#333333;strokeColor=#666666;" vertex="1" parent="1">
          <mxGeometry x="-680" y="1280" width="40" height="80" as="geometry" />
        </mxCell>
        <mxCell id="98Ptpq3VxeF9D4LMuZ2r-79" value="" style="edgeStyle=orthogonalEdgeStyle;rounded=0;orthogonalLoop=1;jettySize=auto;html=1;startArrow=classic;startFill=1;" edge="1" parent="1" source="98Ptpq3VxeF9D4LMuZ2r-80" target="98Ptpq3VxeF9D4LMuZ2r-89">
          <mxGeometry relative="1" as="geometry">
            <Array as="points">
              <mxPoint x="-500" y="1320" />
            </Array>
          </mxGeometry>
        </mxCell>
        <mxCell id="98Ptpq3VxeF9D4LMuZ2r-80" value="Card&lt;br style=&quot;border-color: var(--border-color);&quot;&gt;2" style="rounded=0;whiteSpace=wrap;html=1;fillColor=#fff2cc;strokeColor=#d6b656;" vertex="1" parent="1">
          <mxGeometry x="-360" y="1280" width="40" height="80" as="geometry" />
        </mxCell>
        <mxCell id="98Ptpq3VxeF9D4LMuZ2r-81" value="" style="edgeStyle=orthogonalEdgeStyle;rounded=0;orthogonalLoop=1;jettySize=auto;html=1;startArrow=classic;startFill=1;" edge="1" parent="1" source="98Ptpq3VxeF9D4LMuZ2r-82" target="98Ptpq3VxeF9D4LMuZ2r-89">
          <mxGeometry relative="1" as="geometry" />
        </mxCell>
        <mxCell id="98Ptpq3VxeF9D4LMuZ2r-82" value="Card&lt;br style=&quot;border-color: var(--border-color);&quot;&gt;1" style="rounded=0;whiteSpace=wrap;html=1;fillColor=#fff2cc;strokeColor=#d6b656;" vertex="1" parent="1">
          <mxGeometry x="-680" y="1640" width="40" height="80" as="geometry" />
        </mxCell>
        <mxCell id="98Ptpq3VxeF9D4LMuZ2r-83" value="" style="edgeStyle=orthogonalEdgeStyle;rounded=0;orthogonalLoop=1;jettySize=auto;html=1;startArrow=classic;startFill=1;" edge="1" parent="1" source="98Ptpq3VxeF9D4LMuZ2r-84" target="98Ptpq3VxeF9D4LMuZ2r-89">
          <mxGeometry relative="1" as="geometry" />
        </mxCell>
        <mxCell id="98Ptpq3VxeF9D4LMuZ2r-84" value="Card&lt;br style=&quot;border-color: var(--border-color);&quot;&gt;0" style="rounded=0;whiteSpace=wrap;html=1;fillColor=#f5f5f5;strokeColor=#666666;fontColor=#333333;" vertex="1" parent="1">
          <mxGeometry x="-360" y="1640" width="40" height="80" as="geometry" />
        </mxCell>
        <mxCell id="98Ptpq3VxeF9D4LMuZ2r-85" value="" style="edgeStyle=orthogonalEdgeStyle;rounded=0;orthogonalLoop=1;jettySize=auto;html=1;startArrow=classic;startFill=1;" edge="1" parent="1" source="98Ptpq3VxeF9D4LMuZ2r-86" target="98Ptpq3VxeF9D4LMuZ2r-89">
          <mxGeometry relative="1" as="geometry" />
        </mxCell>
        <mxCell id="98Ptpq3VxeF9D4LMuZ2r-86" value="IB&lt;br&gt;1" style="rounded=0;whiteSpace=wrap;html=1;fillColor=#cdeb8b;strokeColor=#36393d;" vertex="1" parent="1">
          <mxGeometry x="-240" y="1460" width="40" height="80" as="geometry" />
        </mxCell>
        <mxCell id="98Ptpq3VxeF9D4LMuZ2r-87" value="" style="edgeStyle=orthogonalEdgeStyle;rounded=0;orthogonalLoop=1;jettySize=auto;html=1;startArrow=classic;startFill=1;" edge="1" parent="1" source="98Ptpq3VxeF9D4LMuZ2r-88" target="98Ptpq3VxeF9D4LMuZ2r-89">
          <mxGeometry relative="1" as="geometry" />
        </mxCell>
        <mxCell id="98Ptpq3VxeF9D4LMuZ2r-88" value="IB&lt;br&gt;0" style="rounded=0;whiteSpace=wrap;html=1;fillColor=#cdeb8b;strokeColor=#36393d;" vertex="1" parent="1">
          <mxGeometry x="-800" y="1460" width="40" height="80" as="geometry" />
        </mxCell>
        <mxCell id="98Ptpq3VxeF9D4LMuZ2r-89" value="PCIE&lt;div&gt;SWITCH&lt;/div&gt;&lt;div&gt;NUMA 0&lt;/div&gt;" style="rounded=0;whiteSpace=wrap;html=1;fillColor=#e1d5e7;strokeColor=#9673a6;" vertex="1" parent="1">
          <mxGeometry x="-560" y="1460" width="120" height="80" as="geometry" />
        </mxCell>
        <mxCell id="98Ptpq3VxeF9D4LMuZ2r-90" value="PP" style="shape=flexArrow;endArrow=classic;html=1;rounded=0;entryX=0;entryY=0.25;entryDx=0;entryDy=0;exitX=1;exitY=0.25;exitDx=0;exitDy=0;fillColor=#ffcccc;strokeColor=#36393d;" edge="1" parent="1" source="98Ptpq3VxeF9D4LMuZ2r-44" target="98Ptpq3VxeF9D4LMuZ2r-45">
          <mxGeometry width="50" height="50" relative="1" as="geometry">
            <mxPoint x="-610" y="750" as="sourcePoint" />
            <mxPoint x="-410" y="750" as="targetPoint" />
          </mxGeometry>
        </mxCell>
        <mxCell id="98Ptpq3VxeF9D4LMuZ2r-91" value="PP" style="shape=flexArrow;endArrow=classic;html=1;rounded=0;entryX=0;entryY=0;entryDx=0;entryDy=0;exitX=1;exitY=1;exitDx=0;exitDy=0;fillColor=#ffcccc;strokeColor=#36393d;" edge="1" parent="1" source="98Ptpq3VxeF9D4LMuZ2r-45" target="98Ptpq3VxeF9D4LMuZ2r-48">
          <mxGeometry width="50" height="50" relative="1" as="geometry">
            <mxPoint x="-630" y="770" as="sourcePoint" />
            <mxPoint x="-350" y="770" as="targetPoint" />
          </mxGeometry>
        </mxCell>
        <mxCell id="98Ptpq3VxeF9D4LMuZ2r-92" value="PP" style="shape=flexArrow;endArrow=classic;html=1;rounded=0;exitX=0.5;exitY=1;exitDx=0;exitDy=0;entryX=0.5;entryY=0;entryDx=0;entryDy=0;fillColor=#ffcccc;strokeColor=#36393d;" edge="1" parent="1" source="98Ptpq3VxeF9D4LMuZ2r-48" target="98Ptpq3VxeF9D4LMuZ2r-86">
          <mxGeometry width="50" height="50" relative="1" as="geometry">
            <mxPoint x="-1200" y="1370" as="sourcePoint" />
            <mxPoint x="-370" y="1430" as="targetPoint" />
          </mxGeometry>
        </mxCell>
        <mxCell id="98Ptpq3VxeF9D4LMuZ2r-93" value="PP" style="shape=flexArrow;endArrow=classic;html=1;rounded=0;exitX=0;exitY=1;exitDx=0;exitDy=0;entryX=1;entryY=0;entryDx=0;entryDy=0;fillColor=#ffcccc;strokeColor=#36393d;" edge="1" parent="1" source="98Ptpq3VxeF9D4LMuZ2r-86" target="98Ptpq3VxeF9D4LMuZ2r-84">
          <mxGeometry width="50" height="50" relative="1" as="geometry">
            <mxPoint x="-210" y="1010" as="sourcePoint" />
            <mxPoint x="-210" y="1470" as="targetPoint" />
          </mxGeometry>
        </mxCell>
        <mxCell id="98Ptpq3VxeF9D4LMuZ2r-94" value="PP" style="shape=flexArrow;endArrow=classic;html=1;rounded=0;exitX=0;exitY=0.75;exitDx=0;exitDy=0;entryX=1;entryY=0.75;entryDx=0;entryDy=0;fillColor=#ffcccc;strokeColor=#36393d;" edge="1" parent="1" source="98Ptpq3VxeF9D4LMuZ2r-84" target="98Ptpq3VxeF9D4LMuZ2r-82">
          <mxGeometry width="50" height="50" relative="1" as="geometry">
            <mxPoint x="-230" y="1550" as="sourcePoint" />
            <mxPoint x="-310" y="1650" as="targetPoint" />
          </mxGeometry>
        </mxCell>
        <mxCell id="98Ptpq3VxeF9D4LMuZ2r-95" value="PP" style="shape=flexArrow;endArrow=none;html=1;rounded=0;exitX=0;exitY=0.25;exitDx=0;exitDy=0;entryX=1;entryY=0.25;entryDx=0;entryDy=0;fillColor=#ffff88;strokeColor=#36393d;startArrow=block;startFill=0;endFill=0;" edge="1" parent="1" source="98Ptpq3VxeF9D4LMuZ2r-80" target="98Ptpq3VxeF9D4LMuZ2r-78">
          <mxGeometry width="50" height="50" relative="1" as="geometry">
            <mxPoint x="-230" y="1550" as="sourcePoint" />
            <mxPoint x="-310" y="1650" as="targetPoint" />
          </mxGeometry>
        </mxCell>
        <mxCell id="98Ptpq3VxeF9D4LMuZ2r-96" value="PP" style="shape=flexArrow;endArrow=none;html=1;rounded=0;exitX=0;exitY=1;exitDx=0;exitDy=0;entryX=1;entryY=0;entryDx=0;entryDy=0;fillColor=#ffff88;strokeColor=#36393d;startArrow=block;startFill=0;endFill=0;" edge="1" parent="1" source="98Ptpq3VxeF9D4LMuZ2r-78" target="98Ptpq3VxeF9D4LMuZ2r-88">
          <mxGeometry width="50" height="50" relative="1" as="geometry">
            <mxPoint x="-350" y="1310" as="sourcePoint" />
            <mxPoint x="-630" y="1310" as="targetPoint" />
          </mxGeometry>
        </mxCell>
        <mxCell id="98Ptpq3VxeF9D4LMuZ2r-97" value="PP" style="shape=flexArrow;endArrow=none;html=1;rounded=0;exitX=0.5;exitY=0;exitDx=0;exitDy=0;entryX=0.5;entryY=1;entryDx=0;entryDy=0;fillColor=#ffff88;strokeColor=#36393d;startArrow=block;endFill=0;" edge="1" parent="1" source="98Ptpq3VxeF9D4LMuZ2r-88" target="98Ptpq3VxeF9D4LMuZ2r-49">
          <mxGeometry width="50" height="50" relative="1" as="geometry">
            <mxPoint x="-670" y="1370" as="sourcePoint" />
            <mxPoint x="-750" y="1470" as="targetPoint" />
          </mxGeometry>
        </mxCell>
        <mxCell id="98Ptpq3VxeF9D4LMuZ2r-100" value="PP" style="shape=flexArrow;endArrow=none;html=1;rounded=0;exitX=1;exitY=1;exitDx=0;exitDy=0;entryX=0;entryY=0;entryDx=0;entryDy=0;fillColor=#ffff88;strokeColor=#36393d;endFill=0;startArrow=block;" edge="1" parent="1" source="98Ptpq3VxeF9D4LMuZ2r-49" target="98Ptpq3VxeF9D4LMuZ2r-46">
          <mxGeometry width="50" height="50" relative="1" as="geometry">
            <mxPoint x="-670" y="1370" as="sourcePoint" />
            <mxPoint x="-750" y="1470" as="targetPoint" />
          </mxGeometry>
        </mxCell>
        <mxCell id="98Ptpq3VxeF9D4LMuZ2r-101" value="PP" style="shape=flexArrow;endArrow=none;html=1;rounded=0;exitX=1;exitY=0.75;exitDx=0;exitDy=0;entryX=0;entryY=0.75;entryDx=0;entryDy=0;fillColor=#ffff88;strokeColor=#36393d;startArrow=block;endFill=0;" edge="1" parent="1" source="98Ptpq3VxeF9D4LMuZ2r-46" target="98Ptpq3VxeF9D4LMuZ2r-47">
          <mxGeometry width="50" height="50" relative="1" as="geometry">
            <mxPoint x="-750" y="1010" as="sourcePoint" />
            <mxPoint x="-670" y="1110" as="targetPoint" />
          </mxGeometry>
        </mxCell>
        <mxCell id="98Ptpq3VxeF9D4LMuZ2r-102" value="" style="edgeStyle=orthogonalEdgeStyle;rounded=0;orthogonalLoop=1;jettySize=auto;html=1;startArrow=classic;startFill=1;" edge="1" parent="1" source="98Ptpq3VxeF9D4LMuZ2r-103" target="98Ptpq3VxeF9D4LMuZ2r-114">
          <mxGeometry relative="1" as="geometry">
            <Array as="points">
              <mxPoint x="300" y="780" />
            </Array>
          </mxGeometry>
        </mxCell>
        <mxCell id="98Ptpq3VxeF9D4LMuZ2r-103" value="Card&lt;br&gt;0" style="rounded=0;whiteSpace=wrap;html=1;fillColor=#dae8fc;strokeColor=#6c8ebf;" vertex="1" parent="1">
          <mxGeometry x="120" y="740" width="40" height="80" as="geometry" />
        </mxCell>
        <mxCell id="98Ptpq3VxeF9D4LMuZ2r-104" value="" style="edgeStyle=orthogonalEdgeStyle;rounded=0;orthogonalLoop=1;jettySize=auto;html=1;startArrow=classic;startFill=1;" edge="1" parent="1" source="98Ptpq3VxeF9D4LMuZ2r-105" target="98Ptpq3VxeF9D4LMuZ2r-114">
          <mxGeometry relative="1" as="geometry">
            <Array as="points">
              <mxPoint x="300" y="780" />
            </Array>
          </mxGeometry>
        </mxCell>
        <mxCell id="98Ptpq3VxeF9D4LMuZ2r-105" value="Card&lt;br style=&quot;border-color: var(--border-color);&quot;&gt;1" style="rounded=0;whiteSpace=wrap;html=1;fillColor=#d5e8d4;strokeColor=#82b366;" vertex="1" parent="1">
          <mxGeometry x="440" y="740" width="40" height="80" as="geometry" />
        </mxCell>
        <mxCell id="98Ptpq3VxeF9D4LMuZ2r-106" value="" style="edgeStyle=orthogonalEdgeStyle;rounded=0;orthogonalLoop=1;jettySize=auto;html=1;startArrow=classic;startFill=1;" edge="1" parent="1" source="98Ptpq3VxeF9D4LMuZ2r-107" target="98Ptpq3VxeF9D4LMuZ2r-114">
          <mxGeometry relative="1" as="geometry" />
        </mxCell>
        <mxCell id="98Ptpq3VxeF9D4LMuZ2r-107" value="Card&lt;br style=&quot;border-color: var(--border-color);&quot;&gt;2" style="rounded=0;whiteSpace=wrap;html=1;fillColor=#d5e8d4;strokeColor=#82b366;" vertex="1" parent="1">
          <mxGeometry x="120" y="1100" width="40" height="80" as="geometry" />
        </mxCell>
        <mxCell id="98Ptpq3VxeF9D4LMuZ2r-108" value="" style="edgeStyle=orthogonalEdgeStyle;rounded=0;orthogonalLoop=1;jettySize=auto;html=1;startArrow=classic;startFill=1;" edge="1" parent="1" source="98Ptpq3VxeF9D4LMuZ2r-109" target="98Ptpq3VxeF9D4LMuZ2r-114">
          <mxGeometry relative="1" as="geometry" />
        </mxCell>
        <mxCell id="98Ptpq3VxeF9D4LMuZ2r-109" value="Card&lt;br style=&quot;border-color: var(--border-color);&quot;&gt;3" style="rounded=0;whiteSpace=wrap;html=1;fillColor=#dae8fc;strokeColor=#6c8ebf;" vertex="1" parent="1">
          <mxGeometry x="440" y="1100" width="40" height="80" as="geometry" />
        </mxCell>
        <mxCell id="98Ptpq3VxeF9D4LMuZ2r-110" value="" style="edgeStyle=orthogonalEdgeStyle;rounded=0;orthogonalLoop=1;jettySize=auto;html=1;startArrow=classic;startFill=1;" edge="1" parent="1" source="98Ptpq3VxeF9D4LMuZ2r-111" target="98Ptpq3VxeF9D4LMuZ2r-114">
          <mxGeometry relative="1" as="geometry" />
        </mxCell>
        <mxCell id="98Ptpq3VxeF9D4LMuZ2r-111" value="IB&lt;br&gt;1" style="rounded=0;whiteSpace=wrap;html=1;fillColor=#cdeb8b;strokeColor=#36393d;" vertex="1" parent="1">
          <mxGeometry x="560" y="920" width="40" height="80" as="geometry" />
        </mxCell>
        <mxCell id="98Ptpq3VxeF9D4LMuZ2r-112" value="" style="edgeStyle=orthogonalEdgeStyle;rounded=0;orthogonalLoop=1;jettySize=auto;html=1;startArrow=classic;startFill=1;" edge="1" parent="1" source="98Ptpq3VxeF9D4LMuZ2r-113" target="98Ptpq3VxeF9D4LMuZ2r-114">
          <mxGeometry relative="1" as="geometry" />
        </mxCell>
        <mxCell id="98Ptpq3VxeF9D4LMuZ2r-113" value="IB&lt;br&gt;0" style="rounded=0;whiteSpace=wrap;html=1;fillColor=#cdeb8b;strokeColor=#36393d;" vertex="1" parent="1">
          <mxGeometry y="920" width="40" height="80" as="geometry" />
        </mxCell>
        <mxCell id="98Ptpq3VxeF9D4LMuZ2r-114" value="PCIE&lt;div&gt;SWITCH&lt;/div&gt;&lt;div&gt;NUMA 0&lt;/div&gt;" style="rounded=0;whiteSpace=wrap;html=1;fillColor=#e1d5e7;strokeColor=#9673a6;" vertex="1" parent="1">
          <mxGeometry x="240" y="920" width="120" height="80" as="geometry" />
        </mxCell>
        <mxCell id="98Ptpq3VxeF9D4LMuZ2r-115" value="" style="edgeStyle=orthogonalEdgeStyle;rounded=0;orthogonalLoop=1;jettySize=auto;html=1;startArrow=classic;startFill=1;" edge="1" parent="1" source="98Ptpq3VxeF9D4LMuZ2r-116" target="98Ptpq3VxeF9D4LMuZ2r-127">
          <mxGeometry relative="1" as="geometry">
            <Array as="points">
              <mxPoint x="300" y="1320" />
            </Array>
          </mxGeometry>
        </mxCell>
        <mxCell id="98Ptpq3VxeF9D4LMuZ2r-116" value="Card&lt;br&gt;3" style="rounded=0;whiteSpace=wrap;html=1;fillColor=#f5f5f5;strokeColor=#666666;fontColor=#333333;" vertex="1" parent="1">
          <mxGeometry x="120" y="1280" width="40" height="80" as="geometry" />
        </mxCell>
        <mxCell id="98Ptpq3VxeF9D4LMuZ2r-117" value="" style="edgeStyle=orthogonalEdgeStyle;rounded=0;orthogonalLoop=1;jettySize=auto;html=1;startArrow=classic;startFill=1;" edge="1" parent="1" source="98Ptpq3VxeF9D4LMuZ2r-118" target="98Ptpq3VxeF9D4LMuZ2r-127">
          <mxGeometry relative="1" as="geometry">
            <Array as="points">
              <mxPoint x="300" y="1320" />
            </Array>
          </mxGeometry>
        </mxCell>
        <mxCell id="98Ptpq3VxeF9D4LMuZ2r-118" value="Card&lt;br style=&quot;border-color: var(--border-color);&quot;&gt;2" style="rounded=0;whiteSpace=wrap;html=1;fillColor=#fff2cc;strokeColor=#d6b656;" vertex="1" parent="1">
          <mxGeometry x="440" y="1280" width="40" height="80" as="geometry" />
        </mxCell>
        <mxCell id="98Ptpq3VxeF9D4LMuZ2r-119" value="" style="edgeStyle=orthogonalEdgeStyle;rounded=0;orthogonalLoop=1;jettySize=auto;html=1;startArrow=classic;startFill=1;" edge="1" parent="1" source="98Ptpq3VxeF9D4LMuZ2r-120" target="98Ptpq3VxeF9D4LMuZ2r-127">
          <mxGeometry relative="1" as="geometry" />
        </mxCell>
        <mxCell id="98Ptpq3VxeF9D4LMuZ2r-120" value="Card&lt;br style=&quot;border-color: var(--border-color);&quot;&gt;1" style="rounded=0;whiteSpace=wrap;html=1;fillColor=#fff2cc;strokeColor=#d6b656;" vertex="1" parent="1">
          <mxGeometry x="120" y="1640" width="40" height="80" as="geometry" />
        </mxCell>
        <mxCell id="98Ptpq3VxeF9D4LMuZ2r-121" value="" style="edgeStyle=orthogonalEdgeStyle;rounded=0;orthogonalLoop=1;jettySize=auto;html=1;startArrow=classic;startFill=1;" edge="1" parent="1" source="98Ptpq3VxeF9D4LMuZ2r-122" target="98Ptpq3VxeF9D4LMuZ2r-127">
          <mxGeometry relative="1" as="geometry" />
        </mxCell>
        <mxCell id="98Ptpq3VxeF9D4LMuZ2r-122" value="Card&lt;br style=&quot;border-color: var(--border-color);&quot;&gt;0" style="rounded=0;whiteSpace=wrap;html=1;fillColor=#f5f5f5;strokeColor=#666666;fontColor=#333333;" vertex="1" parent="1">
          <mxGeometry x="440" y="1640" width="40" height="80" as="geometry" />
        </mxCell>
        <mxCell id="98Ptpq3VxeF9D4LMuZ2r-123" value="" style="edgeStyle=orthogonalEdgeStyle;rounded=0;orthogonalLoop=1;jettySize=auto;html=1;startArrow=classic;startFill=1;" edge="1" parent="1" source="98Ptpq3VxeF9D4LMuZ2r-124" target="98Ptpq3VxeF9D4LMuZ2r-127">
          <mxGeometry relative="1" as="geometry" />
        </mxCell>
        <mxCell id="98Ptpq3VxeF9D4LMuZ2r-124" value="IB&lt;br&gt;1" style="rounded=0;whiteSpace=wrap;html=1;fillColor=#cdeb8b;strokeColor=#36393d;" vertex="1" parent="1">
          <mxGeometry x="560" y="1460" width="40" height="80" as="geometry" />
        </mxCell>
        <mxCell id="98Ptpq3VxeF9D4LMuZ2r-125" value="" style="edgeStyle=orthogonalEdgeStyle;rounded=0;orthogonalLoop=1;jettySize=auto;html=1;startArrow=classic;startFill=1;" edge="1" parent="1" source="98Ptpq3VxeF9D4LMuZ2r-126" target="98Ptpq3VxeF9D4LMuZ2r-127">
          <mxGeometry relative="1" as="geometry" />
        </mxCell>
        <mxCell id="98Ptpq3VxeF9D4LMuZ2r-126" value="IB&lt;br&gt;0" style="rounded=0;whiteSpace=wrap;html=1;fillColor=#cdeb8b;strokeColor=#36393d;" vertex="1" parent="1">
          <mxGeometry y="1460" width="40" height="80" as="geometry" />
        </mxCell>
        <mxCell id="98Ptpq3VxeF9D4LMuZ2r-127" value="PCIE&lt;div&gt;SWITCH&lt;/div&gt;&lt;div&gt;NUMA 0&lt;/div&gt;" style="rounded=0;whiteSpace=wrap;html=1;fillColor=#e1d5e7;strokeColor=#9673a6;" vertex="1" parent="1">
          <mxGeometry x="240" y="1460" width="120" height="80" as="geometry" />
        </mxCell>
        <mxCell id="98Ptpq3VxeF9D4LMuZ2r-128" value="PP" style="shape=flexArrow;endArrow=classic;html=1;rounded=0;entryX=0;entryY=0.25;entryDx=0;entryDy=0;exitX=1;exitY=0.25;exitDx=0;exitDy=0;fillColor=#ffcccc;strokeColor=#36393d;" edge="1" parent="1" source="98Ptpq3VxeF9D4LMuZ2r-103" target="98Ptpq3VxeF9D4LMuZ2r-105">
          <mxGeometry width="50" height="50" relative="1" as="geometry">
            <mxPoint x="190" y="750" as="sourcePoint" />
            <mxPoint x="390" y="750" as="targetPoint" />
          </mxGeometry>
        </mxCell>
        <mxCell id="98Ptpq3VxeF9D4LMuZ2r-129" value="PP" style="shape=flexArrow;endArrow=classic;html=1;rounded=0;entryX=0;entryY=0;entryDx=0;entryDy=0;exitX=1;exitY=1;exitDx=0;exitDy=0;fillColor=#ffcccc;strokeColor=#36393d;" edge="1" parent="1" source="98Ptpq3VxeF9D4LMuZ2r-105" target="98Ptpq3VxeF9D4LMuZ2r-111">
          <mxGeometry width="50" height="50" relative="1" as="geometry">
            <mxPoint x="170" y="770" as="sourcePoint" />
            <mxPoint x="450" y="770" as="targetPoint" />
          </mxGeometry>
        </mxCell>
        <mxCell id="98Ptpq3VxeF9D4LMuZ2r-130" value="PP" style="shape=flexArrow;endArrow=classic;html=1;rounded=0;exitX=0.5;exitY=1;exitDx=0;exitDy=0;entryX=0.5;entryY=0;entryDx=0;entryDy=0;fillColor=#ffcccc;strokeColor=#36393d;" edge="1" parent="1" source="98Ptpq3VxeF9D4LMuZ2r-111" target="98Ptpq3VxeF9D4LMuZ2r-124">
          <mxGeometry width="50" height="50" relative="1" as="geometry">
            <mxPoint x="-400" y="1370" as="sourcePoint" />
            <mxPoint x="430" y="1430" as="targetPoint" />
          </mxGeometry>
        </mxCell>
        <mxCell id="98Ptpq3VxeF9D4LMuZ2r-131" value="PP" style="shape=flexArrow;endArrow=classic;html=1;rounded=0;exitX=0;exitY=1;exitDx=0;exitDy=0;entryX=1;entryY=0;entryDx=0;entryDy=0;fillColor=#ffcccc;strokeColor=#36393d;" edge="1" parent="1" source="98Ptpq3VxeF9D4LMuZ2r-124" target="98Ptpq3VxeF9D4LMuZ2r-122">
          <mxGeometry width="50" height="50" relative="1" as="geometry">
            <mxPoint x="590" y="1010" as="sourcePoint" />
            <mxPoint x="590" y="1470" as="targetPoint" />
          </mxGeometry>
        </mxCell>
        <mxCell id="98Ptpq3VxeF9D4LMuZ2r-132" value="PP" style="shape=flexArrow;endArrow=classic;html=1;rounded=0;exitX=0;exitY=0.75;exitDx=0;exitDy=0;entryX=1;entryY=0.75;entryDx=0;entryDy=0;fillColor=#ffcccc;strokeColor=#36393d;" edge="1" parent="1" source="98Ptpq3VxeF9D4LMuZ2r-122" target="98Ptpq3VxeF9D4LMuZ2r-120">
          <mxGeometry width="50" height="50" relative="1" as="geometry">
            <mxPoint x="570" y="1550" as="sourcePoint" />
            <mxPoint x="490" y="1650" as="targetPoint" />
          </mxGeometry>
        </mxCell>
        <mxCell id="98Ptpq3VxeF9D4LMuZ2r-133" value="PP" style="shape=flexArrow;endArrow=none;html=1;rounded=0;exitX=0;exitY=0.25;exitDx=0;exitDy=0;entryX=1;entryY=0.25;entryDx=0;entryDy=0;fillColor=#ffff88;strokeColor=#36393d;startArrow=block;startFill=0;endFill=0;" edge="1" parent="1" source="98Ptpq3VxeF9D4LMuZ2r-118" target="98Ptpq3VxeF9D4LMuZ2r-116">
          <mxGeometry width="50" height="50" relative="1" as="geometry">
            <mxPoint x="570" y="1550" as="sourcePoint" />
            <mxPoint x="490" y="1650" as="targetPoint" />
          </mxGeometry>
        </mxCell>
        <mxCell id="98Ptpq3VxeF9D4LMuZ2r-134" value="PP" style="shape=flexArrow;endArrow=none;html=1;rounded=0;exitX=0;exitY=1;exitDx=0;exitDy=0;entryX=1;entryY=0;entryDx=0;entryDy=0;fillColor=#ffff88;strokeColor=#36393d;startArrow=block;startFill=0;endFill=0;" edge="1" parent="1" source="98Ptpq3VxeF9D4LMuZ2r-116" target="98Ptpq3VxeF9D4LMuZ2r-126">
          <mxGeometry width="50" height="50" relative="1" as="geometry">
            <mxPoint x="450" y="1310" as="sourcePoint" />
            <mxPoint x="170" y="1310" as="targetPoint" />
          </mxGeometry>
        </mxCell>
        <mxCell id="98Ptpq3VxeF9D4LMuZ2r-135" value="PP" style="shape=flexArrow;endArrow=none;html=1;rounded=0;exitX=0.5;exitY=0;exitDx=0;exitDy=0;entryX=0.5;entryY=1;entryDx=0;entryDy=0;fillColor=#ffff88;strokeColor=#36393d;startArrow=block;endFill=0;" edge="1" parent="1" source="98Ptpq3VxeF9D4LMuZ2r-126" target="98Ptpq3VxeF9D4LMuZ2r-113">
          <mxGeometry width="50" height="50" relative="1" as="geometry">
            <mxPoint x="130" y="1370" as="sourcePoint" />
            <mxPoint x="50" y="1470" as="targetPoint" />
          </mxGeometry>
        </mxCell>
        <mxCell id="98Ptpq3VxeF9D4LMuZ2r-136" value="PP" style="shape=flexArrow;endArrow=none;html=1;rounded=0;exitX=1;exitY=1;exitDx=0;exitDy=0;entryX=0;entryY=0;entryDx=0;entryDy=0;fillColor=#ffff88;strokeColor=#36393d;endFill=0;startArrow=block;" edge="1" parent="1" source="98Ptpq3VxeF9D4LMuZ2r-113" target="98Ptpq3VxeF9D4LMuZ2r-107">
          <mxGeometry width="50" height="50" relative="1" as="geometry">
            <mxPoint x="130" y="1370" as="sourcePoint" />
            <mxPoint x="50" y="1470" as="targetPoint" />
          </mxGeometry>
        </mxCell>
        <mxCell id="98Ptpq3VxeF9D4LMuZ2r-137" value="PP" style="shape=flexArrow;endArrow=none;html=1;rounded=0;exitX=1;exitY=0.75;exitDx=0;exitDy=0;entryX=0;entryY=0.75;entryDx=0;entryDy=0;fillColor=#ffff88;strokeColor=#36393d;startArrow=block;endFill=0;" edge="1" parent="1" source="98Ptpq3VxeF9D4LMuZ2r-107" target="98Ptpq3VxeF9D4LMuZ2r-109">
          <mxGeometry width="50" height="50" relative="1" as="geometry">
            <mxPoint x="50" y="1010" as="sourcePoint" />
            <mxPoint x="130" y="1110" as="targetPoint" />
          </mxGeometry>
        </mxCell>
        <mxCell id="98Ptpq3VxeF9D4LMuZ2r-174" value="" style="edgeStyle=orthogonalEdgeStyle;rounded=0;orthogonalLoop=1;jettySize=auto;html=1;startArrow=classic;startFill=1;" edge="1" parent="1" source="98Ptpq3VxeF9D4LMuZ2r-175" target="98Ptpq3VxeF9D4LMuZ2r-186">
          <mxGeometry relative="1" as="geometry">
            <Array as="points">
              <mxPoint x="-500" y="1960" />
            </Array>
          </mxGeometry>
        </mxCell>
        <mxCell id="98Ptpq3VxeF9D4LMuZ2r-175" value="Card&lt;br&gt;0" style="rounded=0;whiteSpace=wrap;html=1;fillColor=#dae8fc;strokeColor=#6c8ebf;" vertex="1" parent="1">
          <mxGeometry x="-680" y="1920" width="40" height="80" as="geometry" />
        </mxCell>
        <mxCell id="98Ptpq3VxeF9D4LMuZ2r-176" value="" style="edgeStyle=orthogonalEdgeStyle;rounded=0;orthogonalLoop=1;jettySize=auto;html=1;startArrow=classic;startFill=1;" edge="1" parent="1" source="98Ptpq3VxeF9D4LMuZ2r-177" target="98Ptpq3VxeF9D4LMuZ2r-186">
          <mxGeometry relative="1" as="geometry">
            <Array as="points">
              <mxPoint x="-500" y="1960" />
            </Array>
          </mxGeometry>
        </mxCell>
        <mxCell id="98Ptpq3VxeF9D4LMuZ2r-177" value="Card&lt;br style=&quot;border-color: var(--border-color);&quot;&gt;1" style="rounded=0;whiteSpace=wrap;html=1;fillColor=#d5e8d4;strokeColor=#82b366;" vertex="1" parent="1">
          <mxGeometry x="-360" y="1920" width="40" height="80" as="geometry" />
        </mxCell>
        <mxCell id="98Ptpq3VxeF9D4LMuZ2r-178" value="" style="edgeStyle=orthogonalEdgeStyle;rounded=0;orthogonalLoop=1;jettySize=auto;html=1;startArrow=classic;startFill=1;" edge="1" parent="1" source="98Ptpq3VxeF9D4LMuZ2r-179" target="98Ptpq3VxeF9D4LMuZ2r-186">
          <mxGeometry relative="1" as="geometry" />
        </mxCell>
        <mxCell id="98Ptpq3VxeF9D4LMuZ2r-179" value="Card&lt;br style=&quot;border-color: var(--border-color);&quot;&gt;2" style="rounded=0;whiteSpace=wrap;html=1;fillColor=#d5e8d4;strokeColor=#82b366;" vertex="1" parent="1">
          <mxGeometry x="-680" y="2280" width="40" height="80" as="geometry" />
        </mxCell>
        <mxCell id="98Ptpq3VxeF9D4LMuZ2r-180" value="" style="edgeStyle=orthogonalEdgeStyle;rounded=0;orthogonalLoop=1;jettySize=auto;html=1;startArrow=classic;startFill=1;" edge="1" parent="1" source="98Ptpq3VxeF9D4LMuZ2r-181" target="98Ptpq3VxeF9D4LMuZ2r-186">
          <mxGeometry relative="1" as="geometry" />
        </mxCell>
        <mxCell id="98Ptpq3VxeF9D4LMuZ2r-181" value="Card&lt;br style=&quot;border-color: var(--border-color);&quot;&gt;3" style="rounded=0;whiteSpace=wrap;html=1;fillColor=#dae8fc;strokeColor=#6c8ebf;" vertex="1" parent="1">
          <mxGeometry x="-360" y="2280" width="40" height="80" as="geometry" />
        </mxCell>
        <mxCell id="98Ptpq3VxeF9D4LMuZ2r-182" value="" style="edgeStyle=orthogonalEdgeStyle;rounded=0;orthogonalLoop=1;jettySize=auto;html=1;startArrow=classic;startFill=1;" edge="1" parent="1" source="98Ptpq3VxeF9D4LMuZ2r-183" target="98Ptpq3VxeF9D4LMuZ2r-186">
          <mxGeometry relative="1" as="geometry" />
        </mxCell>
        <mxCell id="98Ptpq3VxeF9D4LMuZ2r-183" value="IB&lt;br&gt;1" style="rounded=0;whiteSpace=wrap;html=1;fillColor=#cdeb8b;strokeColor=#36393d;" vertex="1" parent="1">
          <mxGeometry x="-240" y="2100" width="40" height="80" as="geometry" />
        </mxCell>
        <mxCell id="98Ptpq3VxeF9D4LMuZ2r-184" value="" style="edgeStyle=orthogonalEdgeStyle;rounded=0;orthogonalLoop=1;jettySize=auto;html=1;startArrow=classic;startFill=1;" edge="1" parent="1" source="98Ptpq3VxeF9D4LMuZ2r-185" target="98Ptpq3VxeF9D4LMuZ2r-186">
          <mxGeometry relative="1" as="geometry" />
        </mxCell>
        <mxCell id="98Ptpq3VxeF9D4LMuZ2r-185" value="IB&lt;br&gt;0" style="rounded=0;whiteSpace=wrap;html=1;fillColor=#cdeb8b;strokeColor=#36393d;" vertex="1" parent="1">
          <mxGeometry x="-800" y="2100" width="40" height="80" as="geometry" />
        </mxCell>
        <mxCell id="98Ptpq3VxeF9D4LMuZ2r-186" value="PCIE&lt;div&gt;SWITCH&lt;/div&gt;&lt;div&gt;NUMA 0&lt;/div&gt;" style="rounded=0;whiteSpace=wrap;html=1;fillColor=#e1d5e7;strokeColor=#9673a6;" vertex="1" parent="1">
          <mxGeometry x="-560" y="2100" width="120" height="80" as="geometry" />
        </mxCell>
        <mxCell id="98Ptpq3VxeF9D4LMuZ2r-187" value="" style="edgeStyle=orthogonalEdgeStyle;rounded=0;orthogonalLoop=1;jettySize=auto;html=1;startArrow=classic;startFill=1;" edge="1" parent="1" source="98Ptpq3VxeF9D4LMuZ2r-188" target="98Ptpq3VxeF9D4LMuZ2r-199">
          <mxGeometry relative="1" as="geometry">
            <Array as="points">
              <mxPoint x="-500" y="2500" />
            </Array>
          </mxGeometry>
        </mxCell>
        <mxCell id="98Ptpq3VxeF9D4LMuZ2r-188" value="Card&lt;br&gt;3" style="rounded=0;whiteSpace=wrap;html=1;fillColor=#f5f5f5;strokeColor=#666666;fontColor=#333333;" vertex="1" parent="1">
          <mxGeometry x="-680" y="2460" width="40" height="80" as="geometry" />
        </mxCell>
        <mxCell id="98Ptpq3VxeF9D4LMuZ2r-189" value="" style="edgeStyle=orthogonalEdgeStyle;rounded=0;orthogonalLoop=1;jettySize=auto;html=1;startArrow=classic;startFill=1;" edge="1" parent="1" source="98Ptpq3VxeF9D4LMuZ2r-190" target="98Ptpq3VxeF9D4LMuZ2r-199">
          <mxGeometry relative="1" as="geometry">
            <Array as="points">
              <mxPoint x="-500" y="2500" />
            </Array>
          </mxGeometry>
        </mxCell>
        <mxCell id="98Ptpq3VxeF9D4LMuZ2r-190" value="Card&lt;br style=&quot;border-color: var(--border-color);&quot;&gt;2" style="rounded=0;whiteSpace=wrap;html=1;fillColor=#fff2cc;strokeColor=#d6b656;" vertex="1" parent="1">
          <mxGeometry x="-360" y="2460" width="40" height="80" as="geometry" />
        </mxCell>
        <mxCell id="98Ptpq3VxeF9D4LMuZ2r-191" value="" style="edgeStyle=orthogonalEdgeStyle;rounded=0;orthogonalLoop=1;jettySize=auto;html=1;startArrow=classic;startFill=1;" edge="1" parent="1" source="98Ptpq3VxeF9D4LMuZ2r-192" target="98Ptpq3VxeF9D4LMuZ2r-199">
          <mxGeometry relative="1" as="geometry" />
        </mxCell>
        <mxCell id="98Ptpq3VxeF9D4LMuZ2r-192" value="Card&lt;br style=&quot;border-color: var(--border-color);&quot;&gt;1" style="rounded=0;whiteSpace=wrap;html=1;fillColor=#fff2cc;strokeColor=#d6b656;" vertex="1" parent="1">
          <mxGeometry x="-680" y="2820" width="40" height="80" as="geometry" />
        </mxCell>
        <mxCell id="98Ptpq3VxeF9D4LMuZ2r-193" value="" style="edgeStyle=orthogonalEdgeStyle;rounded=0;orthogonalLoop=1;jettySize=auto;html=1;startArrow=classic;startFill=1;" edge="1" parent="1" source="98Ptpq3VxeF9D4LMuZ2r-194" target="98Ptpq3VxeF9D4LMuZ2r-199">
          <mxGeometry relative="1" as="geometry" />
        </mxCell>
        <mxCell id="98Ptpq3VxeF9D4LMuZ2r-194" value="Card&lt;br style=&quot;border-color: var(--border-color);&quot;&gt;0" style="rounded=0;whiteSpace=wrap;html=1;fillColor=#f5f5f5;strokeColor=#666666;fontColor=#333333;" vertex="1" parent="1">
          <mxGeometry x="-360" y="2820" width="40" height="80" as="geometry" />
        </mxCell>
        <mxCell id="98Ptpq3VxeF9D4LMuZ2r-195" value="" style="edgeStyle=orthogonalEdgeStyle;rounded=0;orthogonalLoop=1;jettySize=auto;html=1;startArrow=classic;startFill=1;" edge="1" parent="1" source="98Ptpq3VxeF9D4LMuZ2r-196" target="98Ptpq3VxeF9D4LMuZ2r-199">
          <mxGeometry relative="1" as="geometry" />
        </mxCell>
        <mxCell id="98Ptpq3VxeF9D4LMuZ2r-196" value="IB&lt;br&gt;1" style="rounded=0;whiteSpace=wrap;html=1;fillColor=#cdeb8b;strokeColor=#36393d;" vertex="1" parent="1">
          <mxGeometry x="-240" y="2640" width="40" height="80" as="geometry" />
        </mxCell>
        <mxCell id="98Ptpq3VxeF9D4LMuZ2r-197" value="" style="edgeStyle=orthogonalEdgeStyle;rounded=0;orthogonalLoop=1;jettySize=auto;html=1;startArrow=classic;startFill=1;" edge="1" parent="1" source="98Ptpq3VxeF9D4LMuZ2r-198" target="98Ptpq3VxeF9D4LMuZ2r-199">
          <mxGeometry relative="1" as="geometry" />
        </mxCell>
        <mxCell id="98Ptpq3VxeF9D4LMuZ2r-198" value="IB&lt;br&gt;0" style="rounded=0;whiteSpace=wrap;html=1;fillColor=#cdeb8b;strokeColor=#36393d;" vertex="1" parent="1">
          <mxGeometry x="-800" y="2640" width="40" height="80" as="geometry" />
        </mxCell>
        <mxCell id="98Ptpq3VxeF9D4LMuZ2r-199" value="PCIE&lt;div&gt;SWITCH&lt;/div&gt;&lt;div&gt;NUMA 0&lt;/div&gt;" style="rounded=0;whiteSpace=wrap;html=1;fillColor=#e1d5e7;strokeColor=#9673a6;" vertex="1" parent="1">
          <mxGeometry x="-560" y="2640" width="120" height="80" as="geometry" />
        </mxCell>
        <mxCell id="98Ptpq3VxeF9D4LMuZ2r-200" value="PP" style="shape=flexArrow;endArrow=classic;html=1;rounded=0;entryX=0;entryY=0.25;entryDx=0;entryDy=0;exitX=1;exitY=0.25;exitDx=0;exitDy=0;fillColor=#ffcccc;strokeColor=#36393d;" edge="1" parent="1" source="98Ptpq3VxeF9D4LMuZ2r-175" target="98Ptpq3VxeF9D4LMuZ2r-177">
          <mxGeometry width="50" height="50" relative="1" as="geometry">
            <mxPoint x="-610" y="1930" as="sourcePoint" />
            <mxPoint x="-410" y="1930" as="targetPoint" />
          </mxGeometry>
        </mxCell>
        <mxCell id="98Ptpq3VxeF9D4LMuZ2r-201" value="PP" style="shape=flexArrow;endArrow=classic;html=1;rounded=0;entryX=0;entryY=0;entryDx=0;entryDy=0;exitX=1;exitY=1;exitDx=0;exitDy=0;fillColor=#ffcccc;strokeColor=#36393d;" edge="1" parent="1" source="98Ptpq3VxeF9D4LMuZ2r-177" target="98Ptpq3VxeF9D4LMuZ2r-183">
          <mxGeometry width="50" height="50" relative="1" as="geometry">
            <mxPoint x="-630" y="1950" as="sourcePoint" />
            <mxPoint x="-350" y="1950" as="targetPoint" />
          </mxGeometry>
        </mxCell>
        <mxCell id="98Ptpq3VxeF9D4LMuZ2r-202" value="PP" style="shape=flexArrow;endArrow=classic;html=1;rounded=0;exitX=0.5;exitY=1;exitDx=0;exitDy=0;entryX=0.5;entryY=0;entryDx=0;entryDy=0;fillColor=#ffcccc;strokeColor=#36393d;" edge="1" parent="1" source="98Ptpq3VxeF9D4LMuZ2r-183" target="98Ptpq3VxeF9D4LMuZ2r-196">
          <mxGeometry width="50" height="50" relative="1" as="geometry">
            <mxPoint x="-1200" y="2550" as="sourcePoint" />
            <mxPoint x="-370" y="2610" as="targetPoint" />
          </mxGeometry>
        </mxCell>
        <mxCell id="98Ptpq3VxeF9D4LMuZ2r-203" value="PP" style="shape=flexArrow;endArrow=classic;html=1;rounded=0;exitX=0;exitY=1;exitDx=0;exitDy=0;entryX=1;entryY=0;entryDx=0;entryDy=0;fillColor=#ffcccc;strokeColor=#36393d;" edge="1" parent="1" source="98Ptpq3VxeF9D4LMuZ2r-196" target="98Ptpq3VxeF9D4LMuZ2r-194">
          <mxGeometry width="50" height="50" relative="1" as="geometry">
            <mxPoint x="-210" y="2190" as="sourcePoint" />
            <mxPoint x="-210" y="2650" as="targetPoint" />
          </mxGeometry>
        </mxCell>
        <mxCell id="98Ptpq3VxeF9D4LMuZ2r-204" value="PP" style="shape=flexArrow;endArrow=classic;html=1;rounded=0;exitX=0;exitY=0.75;exitDx=0;exitDy=0;entryX=1;entryY=0.75;entryDx=0;entryDy=0;fillColor=#ffcccc;strokeColor=#36393d;" edge="1" parent="1" source="98Ptpq3VxeF9D4LMuZ2r-194" target="98Ptpq3VxeF9D4LMuZ2r-192">
          <mxGeometry width="50" height="50" relative="1" as="geometry">
            <mxPoint x="-230" y="2730" as="sourcePoint" />
            <mxPoint x="-310" y="2830" as="targetPoint" />
          </mxGeometry>
        </mxCell>
        <mxCell id="98Ptpq3VxeF9D4LMuZ2r-205" value="PP" style="shape=flexArrow;endArrow=none;html=1;rounded=0;exitX=0;exitY=0.25;exitDx=0;exitDy=0;entryX=1;entryY=0.25;entryDx=0;entryDy=0;fillColor=#ffff88;strokeColor=#36393d;startArrow=block;startFill=0;endFill=0;" edge="1" parent="1" source="98Ptpq3VxeF9D4LMuZ2r-190" target="98Ptpq3VxeF9D4LMuZ2r-188">
          <mxGeometry width="50" height="50" relative="1" as="geometry">
            <mxPoint x="-230" y="2730" as="sourcePoint" />
            <mxPoint x="-310" y="2830" as="targetPoint" />
          </mxGeometry>
        </mxCell>
        <mxCell id="98Ptpq3VxeF9D4LMuZ2r-206" value="PP" style="shape=flexArrow;endArrow=none;html=1;rounded=0;exitX=0;exitY=1;exitDx=0;exitDy=0;entryX=1;entryY=0;entryDx=0;entryDy=0;fillColor=#ffff88;strokeColor=#36393d;startArrow=block;startFill=0;endFill=0;" edge="1" parent="1" source="98Ptpq3VxeF9D4LMuZ2r-188" target="98Ptpq3VxeF9D4LMuZ2r-198">
          <mxGeometry width="50" height="50" relative="1" as="geometry">
            <mxPoint x="-350" y="2490" as="sourcePoint" />
            <mxPoint x="-630" y="2490" as="targetPoint" />
          </mxGeometry>
        </mxCell>
        <mxCell id="98Ptpq3VxeF9D4LMuZ2r-207" value="PP" style="shape=flexArrow;endArrow=none;html=1;rounded=0;exitX=0.5;exitY=0;exitDx=0;exitDy=0;entryX=0.5;entryY=1;entryDx=0;entryDy=0;fillColor=#ffff88;strokeColor=#36393d;startArrow=block;endFill=0;" edge="1" parent="1" source="98Ptpq3VxeF9D4LMuZ2r-198" target="98Ptpq3VxeF9D4LMuZ2r-185">
          <mxGeometry width="50" height="50" relative="1" as="geometry">
            <mxPoint x="-670" y="2550" as="sourcePoint" />
            <mxPoint x="-750" y="2650" as="targetPoint" />
          </mxGeometry>
        </mxCell>
        <mxCell id="98Ptpq3VxeF9D4LMuZ2r-208" value="PP" style="shape=flexArrow;endArrow=none;html=1;rounded=0;exitX=1;exitY=1;exitDx=0;exitDy=0;entryX=0;entryY=0;entryDx=0;entryDy=0;fillColor=#ffff88;strokeColor=#36393d;endFill=0;startArrow=block;" edge="1" parent="1" source="98Ptpq3VxeF9D4LMuZ2r-185" target="98Ptpq3VxeF9D4LMuZ2r-179">
          <mxGeometry width="50" height="50" relative="1" as="geometry">
            <mxPoint x="-670" y="2550" as="sourcePoint" />
            <mxPoint x="-750" y="2650" as="targetPoint" />
          </mxGeometry>
        </mxCell>
        <mxCell id="98Ptpq3VxeF9D4LMuZ2r-209" value="PP" style="shape=flexArrow;endArrow=none;html=1;rounded=0;exitX=1;exitY=0.75;exitDx=0;exitDy=0;entryX=0;entryY=0.75;entryDx=0;entryDy=0;fillColor=#ffff88;strokeColor=#36393d;startArrow=block;endFill=0;" edge="1" parent="1" source="98Ptpq3VxeF9D4LMuZ2r-179" target="98Ptpq3VxeF9D4LMuZ2r-181">
          <mxGeometry width="50" height="50" relative="1" as="geometry">
            <mxPoint x="-750" y="2190" as="sourcePoint" />
            <mxPoint x="-670" y="2290" as="targetPoint" />
          </mxGeometry>
        </mxCell>
        <mxCell id="98Ptpq3VxeF9D4LMuZ2r-210" value="PP" style="shape=flexArrow;endArrow=none;html=1;rounded=0;exitX=1;exitY=1;exitDx=0;exitDy=0;entryX=0;entryY=1;entryDx=0;entryDy=0;fillColor=#e51400;strokeColor=#B20000;startArrow=block;startFill=0;endFill=0;" edge="1" parent="1" source="98Ptpq3VxeF9D4LMuZ2r-88" target="98Ptpq3VxeF9D4LMuZ2r-80">
          <mxGeometry width="50" height="50" relative="1" as="geometry">
            <mxPoint x="-350" y="1310" as="sourcePoint" />
            <mxPoint x="-630" y="1310" as="targetPoint" />
          </mxGeometry>
        </mxCell>
        <mxCell id="98Ptpq3VxeF9D4LMuZ2r-211" value="PP" style="shape=flexArrow;endArrow=none;html=1;rounded=0;exitX=0.5;exitY=0;exitDx=0;exitDy=0;entryX=0.5;entryY=1;entryDx=0;entryDy=0;fillColor=#e51400;strokeColor=#B20000;startArrow=block;startFill=0;endFill=0;" edge="1" parent="1" source="98Ptpq3VxeF9D4LMuZ2r-185" target="98Ptpq3VxeF9D4LMuZ2r-88">
          <mxGeometry width="50" height="50" relative="1" as="geometry">
            <mxPoint x="-750" y="1550" as="sourcePoint" />
            <mxPoint x="-350" y="1370" as="targetPoint" />
          </mxGeometry>
        </mxCell>
        <mxCell id="98Ptpq3VxeF9D4LMuZ2r-212" value="PP" style="shape=flexArrow;endArrow=none;html=1;rounded=0;exitX=0;exitY=0;exitDx=0;exitDy=0;entryX=1;entryY=0;entryDx=0;entryDy=0;fillColor=#e51400;strokeColor=#B20000;startArrow=block;startFill=0;endFill=0;" edge="1" parent="1" source="98Ptpq3VxeF9D4LMuZ2r-181" target="98Ptpq3VxeF9D4LMuZ2r-185">
          <mxGeometry width="50" height="50" relative="1" as="geometry">
            <mxPoint x="-770" y="2110" as="sourcePoint" />
            <mxPoint x="-770" y="1550" as="targetPoint" />
          </mxGeometry>
        </mxCell>
        <mxCell id="98Ptpq3VxeF9D4LMuZ2r-213" value="PP" style="shape=flexArrow;endArrow=none;html=1;rounded=0;exitX=0;exitY=0;exitDx=0;exitDy=0;entryX=1;entryY=0;entryDx=0;entryDy=0;fillColor=#e51400;strokeColor=#B20000;startArrow=block;startFill=0;endFill=0;" edge="1" parent="1" source="98Ptpq3VxeF9D4LMuZ2r-86" target="98Ptpq3VxeF9D4LMuZ2r-82">
          <mxGeometry width="50" height="50" relative="1" as="geometry">
            <mxPoint x="-750" y="1550" as="sourcePoint" />
            <mxPoint x="-350" y="1370" as="targetPoint" />
          </mxGeometry>
        </mxCell>
        <mxCell id="98Ptpq3VxeF9D4LMuZ2r-214" value="PP" style="shape=flexArrow;endArrow=none;html=1;rounded=0;exitX=0.5;exitY=0;exitDx=0;exitDy=0;fillColor=#e51400;strokeColor=#B20000;startArrow=block;startFill=0;endFill=0;entryX=0.5;entryY=1;entryDx=0;entryDy=0;" edge="1" parent="1" source="98Ptpq3VxeF9D4LMuZ2r-183" target="98Ptpq3VxeF9D4LMuZ2r-86">
          <mxGeometry width="50" height="50" relative="1" as="geometry">
            <mxPoint x="-230" y="1470" as="sourcePoint" />
            <mxPoint x="-250" y="1690" as="targetPoint" />
          </mxGeometry>
        </mxCell>
        <mxCell id="98Ptpq3VxeF9D4LMuZ2r-215" value="PP" style="shape=flexArrow;endArrow=none;html=1;rounded=0;exitX=1;exitY=0.75;exitDx=0;exitDy=0;entryX=0;entryY=0.75;entryDx=0;entryDy=0;fillColor=#e51400;strokeColor=#B20000;startArrow=block;startFill=0;endFill=0;" edge="1" parent="1" source="98Ptpq3VxeF9D4LMuZ2r-175" target="98Ptpq3VxeF9D4LMuZ2r-183">
          <mxGeometry width="50" height="50" relative="1" as="geometry">
            <mxPoint x="-350" y="2330" as="sourcePoint" />
            <mxPoint x="-750" y="2150" as="targetPoint" />
          </mxGeometry>
        </mxCell>
        <mxCell id="98Ptpq3VxeF9D4LMuZ2r-222" value="" style="edgeStyle=orthogonalEdgeStyle;rounded=0;orthogonalLoop=1;jettySize=auto;html=1;startArrow=classic;startFill=1;exitX=0;exitY=0.5;exitDx=0;exitDy=0;entryX=0.5;entryY=1;entryDx=0;entryDy=0;" edge="1" parent="1" source="98Ptpq3VxeF9D4LMuZ2r-47" target="98Ptpq3VxeF9D4LMuZ2r-50">
          <mxGeometry relative="1" as="geometry">
            <mxPoint x="-630" y="1150" as="sourcePoint" />
            <mxPoint x="-490" y="1010" as="targetPoint" />
          </mxGeometry>
        </mxCell>
      </root>
    </mxGraphModel>
  </diagram>
</mxfile>
